<?xml version="1.0" standalone="no"?>
<!DOCTYPE svg PUBLIC "-//W3C//DTD SVG 20010904//EN"
 "http://www.w3.org/TR/2001/REC-SVG-20010904/DTD/svg10.dtd">
<svg version="1.0" xmlns="http://www.w3.org/2000/svg"
 width="467.000000pt" height="307.000000pt" viewBox="0 0 467.000000 307.000000"
 preserveAspectRatio="xMidYMid meet">

<g transform="translate(0.000000,307.000000) scale(0.100000,-0.100000)"
fill="#000000" stroke="none">
<path d="M2013 1908 c-83 -21 -88 -138 -9 -180 50 -27 120 3 134 56 11 42 4
71 -24 100 -29 28 -58 35 -101 24z"/>
<path d="M1893 1243 c4 -54 7 -139 7 -190 l0 -92 148 2 147 2 3 120 c1 66 -2
127 -8 135 -7 12 -30 15 -100 15 l-90 0 0 53 0 52 -57 0 -56 0 6 -97z m202
-148 l0 -100 -45 0 -45 0 -3 103 -3 103 48 -3 48 -3 0 -100z"/>
<path d="M1330 1149 l0 -160 -42 3 -43 3 -3 48 -3 47 -55 0 -54 0 0 -46 c0
-83 2 -84 153 -84 90 0 137 4 145 12 8 8 12 62 12 175 l0 163 -55 0 -55 0 0
-161z"/>
<path d="M2280 1135 l0 -175 50 0 49 0 3 124 3 124 70 -121 71 -122 47 -3 47
-3 0 175 0 176 -50 0 -49 0 -3 -122 -3 -123 -70 123 -70 122 -47 0 -48 0 0
-175z"/>
<path d="M3450 1271 c0 -23 -5 -30 -22 -33 -13 -2 -23 -10 -23 -18 0 -8 10
-16 23 -18 21 -3 22 -7 22 -103 0 -134 3 -139 90 -139 56 0 70 3 70 15 0 9 -9
15 -24 15 -30 0 -36 20 -36 128 l0 82 30 0 c23 0 30 4 30 20 0 16 -7 20 -30
20 -27 0 -30 3 -30 30 0 29 -1 30 -50 30 -49 0 -50 -1 -50 -29z"/>
<path d="M1538 1233 c-26 -7 -31 -40 -21 -160 l8 -108 145 0 145 0 3 120 c1
66 -2 127 -8 135 -7 12 -35 15 -132 17 -68 1 -131 -1 -140 -4z m177 -138 l0
-100 -47 -3 -48 -3 0 106 0 106 48 -3 47 -3 0 -100z"/>
<path d="M2718 1230 c-15 -9 -18 -27 -18 -121 0 -61 5 -119 10 -130 10 -17 22
-19 143 -19 147 0 157 4 157 57 0 33 0 33 -50 33 -49 0 -50 -1 -50 -30 0 -29
-1 -30 -49 -30 l-48 0 -7 41 c-4 22 -4 44 -1 50 4 5 51 9 106 9 l99 0 0 58 c0
87 0 87 -147 90 -77 1 -135 -2 -145 -8z m192 -70 l0 -40 -55 0 -55 0 0 40 0
40 55 0 55 0 0 -40z"/>
<path d="M3100 1233 c-24 -10 -30 -25 -30 -75 0 -68 15 -78 111 -78 l79 0 0
-45 0 -45 -40 0 c-36 0 -40 3 -40 25 0 23 -3 25 -51 25 l-50 0 3 -37 3 -38
133 -3 c130 -3 132 -2 141 20 10 30 2 111 -13 120 -6 4 -45 8 -87 8 l-77 0 -5
38 c-6 49 -3 52 44 52 35 0 39 -3 39 -25 0 -23 3 -25 50 -25 48 0 50 1 50 28
0 53 -10 57 -132 59 -62 1 -120 0 -128 -4z"/>
</g>
</svg>
